<svg width="446" height="343" viewBox="0 0 446 343" fill="none" xmlns="http://www.w3.org/2000/svg">
<rect width="445.9" height="12.8625" fill="#2E2D2F"/>
<rect y="330.137" width="445.9" height="12.8625" fill="#2E2D2F"/>
<rect x="29.4983" y="343" width="343" height="10.29" transform="rotate(-90 29.4983 343)" fill="#2E2D2F"/>
<rect x="222.95" y="343" width="343" height="3.43" transform="rotate(-90 222.95 343)" fill="#2E2D2F"/>
<rect x="129.654" y="343" width="343" height="3.43" transform="rotate(-90 129.654 343)" fill="#2E2D2F"/>
<rect x="83.0061" y="343" width="343" height="3.43" transform="rotate(-90 83.0061 343)" fill="#2E2D2F"/>
<rect x="176.302" y="343" width="343" height="3.43" transform="rotate(-90 176.302 343)" fill="#2E2D2F"/>
<rect x="316.246" y="343" width="343" height="3.43" transform="rotate(-90 316.246 343)" fill="#2E2D2F"/>
<rect x="269.598" y="343" width="343" height="3.43" transform="rotate(-90 269.598 343)" fill="#2E2D2F"/>
<rect x="362.894" y="343" width="343" height="3.43" transform="rotate(-90 362.894 343)" fill="#2E2D2F"/>
<rect x="409.542" y="343" width="343" height="10.29" transform="rotate(-90 409.542 343)" fill="#2E2D2F"/>
</svg>
